inDegrees=no
num_controls=7
num_derivatives=13
num_iterations=89
num_multipliers=7
num_parameters=0
num_slacks=7
num_states=26
objective=0.453914
objective_accelerations=0.048004
objective_balance=0.000963
objective_effort=0.037650
objective_height=0.361322
objective_ligament=0.005975
solver_duration=1029.048513
status=Solve_Succeeded
success=true
DataType=double
version=3
OpenSimVersion=4.5
endheader
time	/jointset/ground_pelvis/pelvis_tilt/value	/jointset/ground_pelvis/pelvis_tx/value	/jointset/ground_pelvis/pelvis_ty/value	/jointset/hip_r/hip_flexion_r/value	/jointset/hip_r/hip_adduction_r/value	/jointset/hip_r/hip_rotation_r/value	/jointset/back/lumbar_extension/value	/jointset/patellofemoral_r/patellar_flexion_r/value	/jointset/knee_r/knee_flexion_r/value	/jointset/knee_r/knee_adduction_r/value	/jointset/knee_r/knee_rotation_r/value	/jointset/ankle_r/ankle_angle_r/value	/jointset/subtalar_r/subtalar_angle_r/value	/jointset/ground_pelvis/pelvis_tilt/speed	/jointset/ground_pelvis/pelvis_tx/speed	/jointset/ground_pelvis/pelvis_ty/speed	/jointset/hip_r/hip_flexion_r/speed	/jointset/hip_r/hip_adduction_r/speed	/jointset/hip_r/hip_rotation_r/speed	/jointset/back/lumbar_extension/speed	/jointset/patellofemoral_r/patellar_flexion_r/speed	/jointset/knee_r/knee_flexion_r/speed	/jointset/knee_r/knee_adduction_r/speed	/jointset/knee_r/knee_rotation_r/speed	/jointset/ankle_r/ankle_angle_r/speed	/jointset/subtalar_r/subtalar_angle_r/speed	/forceset/tau_hip_flexion_r	/forceset/tau_hip_adduction_r	/forceset/tau_hip_rotation_r	/forceset/tau_knee_flexion_r	/forceset/tau_ankle_angle_r	/forceset/tau_subtalar_angle_r	/forceset/tau_lumbar_extension	lambda_cid13_p0	lambda_cid14_p0	lambda_cid14_p1	lambda_cid14_p2	lambda_cid14_p3	lambda_cid14_p4	lambda_cid14_p5	/jointset/ground_pelvis/pelvis_tilt/accel	/jointset/ground_pelvis/pelvis_tx/accel	/jointset/ground_pelvis/pelvis_ty/accel	/jointset/hip_r/hip_flexion_r/accel	/jointset/hip_r/hip_adduction_r/accel	/jointset/hip_r/hip_rotation_r/accel	/jointset/back/lumbar_extension/accel	/jointset/patellofemoral_r/patellar_flexion_r/accel	/jointset/knee_r/knee_flexion_r/accel	/jointset/knee_r/knee_adduction_r/accel	/jointset/knee_r/knee_rotation_r/accel	/jointset/ankle_r/ankle_angle_r/accel	/jointset/subtalar_r/subtalar_angle_r/accel	gamma_cid13_p0	gamma_cid14_p0	gamma_cid14_p1	gamma_cid14_p2	gamma_cid14_p3	gamma_cid14_p4	gamma_cid14_p5
0	-0.00259604281514395	0.1292785357194425	0.9340016796482881	0.1934211968871041	-0.220760580684237	-0.2419530696072511	-0.2903787966825928	0.2311786273363398	0.2311786273363406	0.1163302442785105	0.1691533473452937	0.089344008118978	0.07307883217146478	0	0	0	0	0	0	0	0	0	0	0	0	0	0.09697179412190378	-0.0204683836133171	0.00204491942056368	-0.2177875313183809	0.09006729449929092	-0.09169502387951425	-0.02135787779176202	-29.76091508929081	-17.77972693955689	-38.15557477314442	1.044294534413613	11.7517671378219	-608.5570406151091	27.23481105740148	-1.697046966091657	-1.98538058799012	-0.8610208651647736	9.959958653585652	-0.1375082362522856	2.222718143747241	-6.360935653456976	10.28835137242108	10.28835137242118	-2.406208641531665	0.4364268784721553	2.627262128862648	0.5824301868087114	3.313450332163707e-08	3.59714100449879e-08	-2.382750738582495e-07	1.746673860165005e-07	-8.835417815202748e-09	2.068420243327164e-07	-1.911374418567924e-07
0.01	-0.002675806907764626	0.1291821080213213	0.9339598039587697	0.1939050188642382	-0.2207658429079081	-0.241841156163346	-0.2906978370314275	0.2316829421081106	0.2316829421081158	0.1162093693206828	0.1691708341975772	0.08947485566534906	0.07310978908667093	-0.0159842433440644	-0.01902569666801193	-0.008355540646123073	0.09621757013551085	-0.001058903255615397	0.02231554874853993	-0.06333933004358117	0.1003876662470131	0.1003876662470138	-0.02402634444944626	0.003426949944097803	0.02624769640194385	0.006208641233918324	0.09957274618211694	-0.0383761091704629	0.001696478040164754	-0.2288560126904247	0.1050302888281062	-0.08194506230024276	-0.02178942228044957	-29.76661159920277	-12.43213814480339	-33.07277032895458	0.3343905119035722	5.710101162259771	-610.2903835124685	39.03659132289297	-1.553830557664098	-1.822189529788011	-0.8198397073040712	9.370631966300664	-0.09106101031553769	2.225939417076287	-6.250120721434322	9.842674407759718	9.842674407759713	-2.378574311215627	0.2853015221467446	2.635258701550216	0.6426525633336616	4.572976753478484e-08	1.455434390129006e-08	-3.182296999186071e-07	2.100121839572131e-07	2.146442264033205e-08	4.2329484396228e-08	-2.546596205090526e-07
0.02	-0.002916356941641142	0.1289032182918036	0.9338349690541965	0.1953346116972805	-0.2207818900921534	-0.2415080939966198	-0.2916362084890217	0.2331768735737406	0.2331768735737389	0.1158526855254332	0.1692204850432452	0.08987052723687897	0.07320334670854632	-0.03215718825215261	-0.03649240627928969	-0.01659184301095314	0.1891541711816931	-0.002156992115200192	0.04422974456383762	-0.1238662217521929	0.1979233387707579	0.1979233387707585	-0.04716176748147151	0.006432798678922714	0.05296480503148615	0.01252014133384656	0.1021736982422986	-0.05628383472762517	0.001348036659706851	-0.2399244940624781	0.1199932831569134	-0.07219510072099297	-0.0222209667691526	-29.78317718531784	-7.005261197756296	-27.99313523488773	-0.3555289976715268	-0.3034468456937646	-610.7564697751287	50.57915923201745	-1.734787278896466	-1.673583176643261	-0.8371732089061734	9.303764835719948	-0.1453453570461611	2.14244755709879	-5.798447986463134	9.71795262776739	9.71795262776736	-2.228024358047468	0.3522066366175723	2.721144574382359	0.6030019600107059	5.832503174793261e-08	-6.862722242407777e-09	-3.981843259789647e-07	2.453569818979256e-07	5.176426309586685e-08	-1.221830555402604e-07	-3.181817991613128e-07
0.03	-0.003318714643259392	0.1284555906995082	0.9336281246629954	0.1976787384946352	-0.2208092348923513	-0.2409590270406483	-0.2931659859107852	0.2356323708010051	0.2356323708010009	0.1152693219670297	0.169299289321409	0.09053351753921261	0.07335975841219698	-0.04821911596163496	-0.05295879992056012	-0.02477415725430302	0.2792324388389137	-0.003311609764404529	0.06549545896158432	-0.1816835846869266	0.292727252478384	0.2927272524783837	-0.06936734779994963	0.00927335200898209	0.07949518637536337	0.01872496104621984	0.0962275380963464	-0.05541061604275558	0.001805756891701923	-0.233591273795714	0.1111178175249632	-0.06881673524115459	-0.01734711156683224	-29.80980528641337	-9.666462633624544	-26.85139181651596	-0.6980122275933939	0.9285630033151215	-611.1429619148777	51.91327568930492	-1.527605284722516	-1.622010143665821	-0.8083539371175708	8.794047311328791	-0.1004757855475319	2.105457551296817	-5.712528760052927	9.29427089581211	9.294270895811922	-2.195323831427807	0.2418237260342763	2.598280831908381	0.6236032201459005	6.925964970442648e-08	-1.391959478160709e-08	-4.606418593944472e-07	2.736054717536753e-07	6.567469708999501e-08	-2.122062977007255e-07	-3.598374141495609e-07
